<svg width="64" height="64" viewBox="0 0 64 64" fill="none" xmlns="http://www.w3.org/2000/svg">
<rect width="64" height="64" rx="32" fill="#003459"/>
<path d="M28.0133 27.7354C27.4632 27.7354 27.0156 28.1829 27.0156 28.733C27.0156 29.2831 27.4632 29.7307 28.0133 29.7307H29.011V28.733C29.011 28.1829 28.5634 27.7354 28.0133 27.7354Z" fill="white"/>
<path d="M35.9859 27.7354C35.4358 27.7354 34.9883 28.1829 34.9883 28.733V29.7307H35.9859C36.5359 29.7307 36.9836 29.2831 36.9836 28.733C36.9836 28.1829 36.536 27.7354 35.9859 27.7354Z" fill="white"/>
<path d="M32.9994 31.7227H31.0039V40.3614H32.9994V31.7227Z" fill="white"/>
<path d="M38.8554 46.6738H25.1445V49H38.8554V46.6738Z" fill="white"/>
<path d="M40.0579 18.4143C38.0265 16.3165 35.3033 15.1064 32.3898 15.0068C29.3331 14.9024 26.4397 16.0005 24.243 18.0989C22.0491 20.1947 20.8214 23.0299 20.7859 26.0825C20.7569 28.5814 21.5327 30.9547 23.0293 32.9461C24.4469 34.8323 25.1201 37.1926 25.1438 40.3619H29.0106V31.7233H28.0129C26.3643 31.7233 25.023 30.382 25.023 28.7334C25.023 27.0848 26.3643 25.7436 28.0129 25.7436C29.6615 25.7436 31.0027 27.0848 31.0027 28.7334V29.7311H32.9981V28.7334C32.9981 27.0848 34.3393 25.7436 35.9879 25.7436C37.6365 25.7436 38.9778 27.0848 38.9778 28.7334C38.9778 30.382 37.6365 31.7233 35.9879 31.7233H34.9903V40.3619H38.8574C38.8905 37.192 39.5711 34.8215 40.9922 32.9183C42.4468 30.9704 43.2156 28.6526 43.2156 26.2153C43.2156 23.2875 42.0942 20.5171 40.0579 18.4143Z" fill="white"/>
<path d="M38.8554 42.3545H25.1445V44.682H38.8554V42.3545Z" fill="white"/>
</svg>
