<svg width="64" height="64" viewBox="0 0 64 64" fill="none" xmlns="http://www.w3.org/2000/svg">
<rect width="64" height="64" rx="32" fill="#EAF9FF"/>
<g clip-path="url(#clip0_83479_2769)">
<path d="M47.8425 32.4179L44.3766 27.3129L47.8425 22.2079C48.0045 21.9644 48.0438 21.6605 47.9495 21.384C47.8543 21.1075 47.6364 20.8905 47.359 20.799L36.0466 17.049C35.6419 16.9126 35.2043 17.0664 34.9699 17.418L32 21.8729L29.03 17.418C28.7938 17.0646 28.3525 16.9117 27.9533 17.049L16.6409 20.799C16.3635 20.8906 16.1456 21.1076 16.0504 21.384C15.9561 21.6605 15.9955 21.9644 16.1575 22.208L19.6234 27.313L16.1576 32.4179C15.9955 32.6614 15.9561 32.9654 16.0505 33.2418C16.1456 33.5183 16.3636 33.7353 16.641 33.8268L27.9534 37.5768C28.3515 37.7107 28.7944 37.5613 29.03 37.2079L32 32.753L34.97 37.2079C35.2059 37.5616 35.649 37.7106 36.0467 37.5768L47.3591 33.8268C47.6365 33.7353 47.8544 33.5183 47.9496 33.2418C48.0439 32.9654 48.0045 32.6614 47.8425 32.4179ZM32 30.0751L23.7136 27.313L32 24.5509L40.2864 27.313L32 30.0751Z" fill="#007EA7"/>
<path d="M36.6397 39.3563C35.4597 39.7522 34.1256 39.3229 33.4098 38.2485L32 36.1338L30.59 38.2485C29.8755 39.3208 28.543 39.7541 27.3554 39.3545L19.8125 36.8403V42.3134C19.8125 42.7172 20.0707 43.0752 20.4534 43.2024L31.6978 46.9506C31.7317 46.9625 31.7655 46.9716 31.7994 46.979C31.7994 46.979 31.8003 46.979 31.8003 46.9799H31.8013C31.8672 46.9936 31.934 47.001 32 47.001C32.0705 47.001 32.14 46.9927 32.2096 46.9771C32.2407 46.9698 32.2709 46.9616 32.3012 46.9515L43.5465 43.2025C43.9291 43.0752 44.1873 42.7172 44.1873 42.3134V36.8405L36.6397 39.3563Z" fill="#007EA7"/>
</g>
<defs>
<clipPath id="clip0_83479_2769">
<rect width="32" height="32" fill="white" transform="translate(16 16)"/>
</clipPath>
</defs>
</svg>
