<svg width="64" height="64" viewBox="0 0 64 64" fill="none" xmlns="http://www.w3.org/2000/svg">
<rect width="64" height="64" rx="32" fill="#EAF9FF"/>
<path d="M20.75 17C19.3866 17 18.25 18.1366 18.25 19.5V45.75C18.2501 46.4403 18.8097 46.9999 19.5 47H34.5C35.1903 46.9999 35.7499 46.4403 35.75 45.75V40.125C35.75 39.7798 36.0298 39.5 36.375 39.5H37C37.7052 39.5 38.25 40.0448 38.25 40.75V42C38.25 44.0563 39.9437 45.75 42 45.75C44.0563 45.75 45.75 44.0563 45.75 42V25.75C45.75 24.5708 45.1944 23.4571 44.251 22.7495L40.2495 19.749C39.6388 19.2911 38.8582 19.5126 38.499 20.0005C38.0895 20.5568 38.1974 21.3372 38.7505 21.751L40.2495 22.874C40.5648 23.1102 40.7502 23.4811 40.75 23.875V27C40.75 28.153 41.5589 29.1419 42.6323 29.4219C42.9656 29.5088 43.25 29.7798 43.25 30.125V42C43.25 42.7052 42.7052 43.25 42 43.25C41.2948 43.25 40.75 42.7052 40.75 42V40.75C40.75 38.6937 39.0563 37 37 37H36.375C36.0298 37 35.75 36.7202 35.75 36.375V19.5C35.75 18.1366 34.6134 17 33.25 17L20.75 17ZM21.375 19.5H32.625C32.9712 19.5 33.25 19.7787 33.25 20.125V28.875C33.25 29.2212 32.9712 29.5 32.625 29.5H21.375C21.0287 29.5 20.75 29.2212 20.75 28.875V20.125C20.75 19.7787 21.0287 19.5 21.375 19.5Z" fill="#007EA7"/>
</svg>
