<svg width="64" height="64" viewBox="0 0 64 64" fill="none" xmlns="http://www.w3.org/2000/svg">
<rect width="64" height="64" rx="32" fill="#EAF9FF"/>
<g clip-path="url(#clip0_83479_2761)">
<path fill-rule="evenodd" clip-rule="evenodd" d="M46.9998 32.4216C46.9998 30.0491 46.3861 27.8216 45.3111 25.8854C49.8936 15.5129 40.3998 17.0316 39.8711 17.1354C37.8598 17.5291 35.9998 18.1604 34.2836 18.9616C34.0288 18.9475 33.7737 18.9404 33.5186 18.9404C27.1123 18.9404 21.7498 23.4079 20.3773 29.3979C23.7548 25.6104 26.1173 24.0816 27.5323 23.4704C27.3073 23.672 27.0857 23.8758 26.8673 24.0816L26.6548 24.2879C26.5107 24.4245 26.3682 24.5629 26.2273 24.7029L25.9823 24.9529C25.8573 25.0787 25.7344 25.2054 25.6136 25.3329L25.3586 25.6029C24.8619 26.1331 24.3825 26.6792 23.9211 27.2404C23.748 27.449 23.5772 27.6594 23.4086 27.8716L23.1586 28.1879L22.9298 28.4879L22.6723 28.8279L22.4973 29.0691C21.9893 29.7625 21.5024 30.4712 21.0373 31.1941L21.0348 31.1979C20.919 31.3787 20.8065 31.557 20.6973 31.7329L20.6798 31.7616C20.5698 31.9375 20.4636 32.1116 20.3611 32.2841L20.3498 32.3016C20.0723 32.7658 19.8169 33.2087 19.5836 33.6304C18.3698 35.8304 17.7786 37.3679 17.7536 37.4591C13.9186 51.1666 25.8848 45.3779 27.5548 44.5141C29.4089 45.4297 31.4495 45.9045 33.5173 45.9016C39.3798 45.9016 44.3673 42.1604 46.2236 36.9354H39.1411C38.0923 38.7054 36.0748 39.9054 33.7561 39.9054C30.3598 39.9054 27.6061 37.3316 27.6061 34.1579H46.8886C46.9627 33.5887 46.9998 33.0108 46.9998 32.4216ZM44.4811 19.1554C45.6423 19.9391 46.5736 21.1679 44.9736 25.3129C43.4282 22.8267 41.118 20.9091 38.3898 19.8479C39.6373 19.2454 42.7273 17.9716 44.4811 19.1554ZM19.8098 44.4866C18.8636 43.5166 18.6973 41.1554 20.7836 36.8516C21.8342 39.8597 23.913 42.4002 26.6536 44.0254C25.3036 44.7691 21.7161 46.4429 19.8098 44.4866ZM27.5748 30.4704C27.6823 27.3854 30.3686 24.9154 33.6673 24.9154C36.9673 24.9154 39.6511 27.3854 39.7598 30.4704H27.5748Z" fill="#007EA7"/>
</g>
<defs>
<clipPath id="clip0_83479_2761">
<rect width="30" height="30" fill="white" transform="translate(17 17)"/>
</clipPath>
</defs>
</svg>
